<svg width="98" height="103" viewBox="0 0 98 103" fill="none" xmlns="http://www.w3.org/2000/svg">
<rect width="98" height="102.5" rx="4" fill="#0A0A0A"/>
<path d="M23 12L50 57.5L75 12H23Z" fill="#BEF264"/>
<path d="M60.2969 25.6328C60.2891 26.8047 60.1602 27.75 59.9102 28.4688C59.6602 29.1875 59.2734 29.7109 58.75 30.0391C58.2344 30.3672 57.5781 30.5312 56.7812 30.5312H53.1367C52.6055 30.5312 52.1797 30.6445 51.8594 30.8711C51.5391 31.0977 51.3047 31.4297 51.1562 31.8672C51.0078 32.3047 50.9336 32.8438 50.9336 33.4844H48.7188C48.7188 32.8438 48.6484 32.3047 48.5078 31.8672C48.3594 31.4297 48.125 31.0977 47.8047 30.8711C47.4766 30.6445 47.0508 30.5312 46.5273 30.5312H42.8594C42.0547 30.5312 41.3945 30.3633 40.8789 30.0273C40.3633 29.6914 39.9844 29.1641 39.7422 28.4453C39.4922 27.7188 39.3672 26.7812 39.3672 25.6328H41.4766C41.4922 26.1328 41.5625 26.5625 41.6875 26.9219C41.8125 27.2812 42.0195 27.5547 42.3086 27.7422C42.5898 27.9297 42.9766 28.0234 43.4688 28.0234H46.9844C47.7578 28.0234 48.375 28.2461 48.8359 28.6914C49.2969 29.1289 49.6016 29.7852 49.75 30.6602H49.8906C50.0234 29.7773 50.3242 29.1172 50.793 28.6797C51.2539 28.2422 51.8711 28.0234 52.6445 28.0234H56.1953C56.6875 28.0234 57.0742 27.9297 57.3555 27.7422C57.6445 27.5547 57.8477 27.2812 57.9648 26.9219C58.0898 26.5625 58.1562 26.1328 58.1641 25.6328H60.2969Z" fill="black"/>
<path d="M13.125 78.625L21.7148 75.0391L13.125 71.0078V68.7344L24.5742 74.4297V75.8242L13.125 80.8867V78.625Z" fill="#BEF264"/>
<path d="M84.875 78.625L76.2852 75.0391L84.875 71.0078V68.7344L73.4258 74.4297V75.8242L84.875 80.8867V78.625Z" fill="#BEF264"/>
<path d="M53.085 77.3721H49.5693V78.9365H53.085V82.4873H54.6494V78.9365H58.1562V77.3721H54.6494V73.7861H53.085V77.3721ZM42.7842 77.3721H39.2686V78.9365H42.7842V82.4873H44.3486V78.9365H47.8555V77.3721H44.3486V73.7861H42.7842V77.3721Z" fill="#BEF264"/>
</svg>
