<svg width="47" height="55" viewBox="0 0 47 55" fill="none" xmlns="http://www.w3.org/2000/svg">
<rect width="47" height="55" rx="4" fill="#0A0A0A"/>
<path d="M8 8L23.4286 34L37.7143 8H8Z" fill="#BEF264"/>
<path d="M26.3392 17.7824C26.3366 18.173 26.2937 18.4881 26.2103 18.7277C26.127 18.9673 25.9981 19.1418 25.8236 19.2511C25.6517 19.3605 25.433 19.4152 25.1674 19.4152H23.9525C23.7754 19.4152 23.6335 19.453 23.5267 19.5285C23.42 19.604 23.3418 19.7147 23.2924 19.8605C23.2429 20.0063 23.2181 20.186 23.2181 20.3996H22.4799C22.4799 20.186 22.4564 20.0063 22.4095 19.8605C22.3601 19.7147 22.2819 19.604 22.1752 19.5285C22.0658 19.453 21.9239 19.4152 21.7494 19.4152H20.5267C20.2585 19.4152 20.0385 19.3592 19.8666 19.2472C19.6947 19.1352 19.5684 18.9595 19.4877 18.7199C19.4043 18.4777 19.3627 18.1652 19.3627 17.7824H20.0658C20.071 17.949 20.0944 18.0923 20.1361 18.2121C20.1778 18.3319 20.2468 18.423 20.3431 18.4855C20.4369 18.548 20.5658 18.5793 20.7299 18.5793H21.9017C22.1595 18.5793 22.3653 18.6535 22.5189 18.8019C22.6726 18.9477 22.7741 19.1665 22.8236 19.4582H22.8705C22.9148 19.1639 23.015 18.9438 23.1713 18.798C23.3249 18.6522 23.5306 18.5793 23.7885 18.5793H24.972C25.1361 18.5793 25.265 18.548 25.3588 18.4855C25.4551 18.423 25.5228 18.3319 25.5619 18.2121C25.6036 18.0923 25.6257 17.949 25.6283 17.7824H26.3392Z" fill="black"/>
<path d="M8.5625 41.5625L12.8574 39.7695L8.5625 37.7539V36.6172L14.2871 39.4648V40.1621L8.5625 42.6934V41.5625Z" fill="#BEF264"/>
<path d="M38.2871 42.6934L32.5625 40.1621V39.4648L38.2871 36.6172V37.7539L33.9922 39.7637L38.2871 41.5625V42.6934Z" fill="#BEF264"/>
<path d="M25.0283 38.624H23.8564V39.1455H25.0283V40.3291H25.5498V39.1455H26.7188V38.624H25.5498V37.4287H25.0283V38.624ZM21.5947 38.624H20.4229V39.1455H21.5947V40.3291H22.1162V39.1455H23.2852V38.624H22.1162V37.4287H21.5947V38.624Z" fill="#BEF264"/>
</svg>
